# xmcd
#
# Track frame offsets: 
#        150
#        12612
#        27597
#        40965
#        54755
#        69675
#        88555
#        103920
#        122275
#
# Disc length: 1815 seconds
#
# Revision: 7
# Processed by: cddbd v1.5.2PL0 Copyright (c) Steve Scherf et al.
# Submitted via: ExactAudioCopy v0.95b3
#
DISCID=73071509
DTITLE=Dolly Parton - Greatest Hits
DYEAR=1988
DGENRE=Country
TTITLE0=9 To 5
TTITLE1=But You Know I Love You
TTITLE2=Here You Come Again
TTITLE3=Two Doors Down
TTITLE4=It's All Wrong, But It's All Right
TTITLE5=Islands In The Stream
TTITLE6=Old Flames Can't Hold A Candle To You
TTITLE7=Do I Ever Cross Your Mind
TTITLE8=I Will Always Love You
EXTD=
EXTT0=
EXTT1=
EXTT2=
EXTT3=
EXTT4=
EXTT5=
EXTT6=
EXTT7=
EXTT8=
PLAYORDER=
